<svg viewBox="0 0 435.83 323.29">
	<g fillRule="evenodd">
		<path fill="var(--highlight)" stroke="#000" strokeLinejoin="round" strokeWidth="10" d="M388.75 93.75C370 76.25 420 63.75 426.25 70c10 5-8.75 8.75-7.5 17.5s0 55 10 57.5 22.5 11.25 22.5 23.75C482.5 246.25 360 458.75 70 352.5c-5-3.75-32.5-35-37.5-42.5-2.5-8.75-6.25-30 8.75-37.5 128.75-33.75 277.5 32.5 345-118.75 11.25-26.25 2.5-60 2.5-60z" transform="translate(-25.17 -63.367)"></path>
		<path fill="#442400" strokeWidth="1pt" d="M386.15 89.136c2.92-17.6 29.12-18.073 36.45-18.944 11.98 1.566-15.49 21.444-36.45 18.944zM32.518 305.14c-.933-18.37-1.866-24.43 8.743-30.49 4.617 6.93 3.75 28.37-8.743 30.49z" transform="translate(-25.17 -63.367)"></path>
		<path strokeWidth="1pt" d="M133.75 366.25C352.5 421.25 426.74 283.13 440 250c22.5-40 8.75-85 8.75-85-1.25 135-142.5 243.75-315 201.25z" transform="translate(-25.17 -63.367)"></path>
	</g>
</svg>